<svg width="1607" height="310" viewBox="0 0 1607 310" fill="none" xmlns="http://www.w3.org/2000/svg">
<path d="M284.688 10H28.3125C18.1988 10 10 18.2875 10 28.5106V71.7021C10 81.9253 18.1988 90.2127 28.3125 90.2127H284.688C294.801 90.2127 303 81.9253 303 71.7021V28.5106C303 18.2875 294.801 10 284.688 10Z" fill="#E8791A"/>
<path d="M199.229 114.894H28.3125C18.1988 114.894 10 123.181 10 133.404V176.596C10 186.819 18.1988 195.106 28.3125 195.106H199.229C209.343 195.106 217.542 186.819 217.542 176.596V133.404C217.542 123.181 209.343 114.894 199.229 114.894Z" fill="#F5A23C"/>
<path d="M284.688 219.787H28.3125C18.1988 219.787 10 228.075 10 238.298V281.489C10 291.713 18.1988 300 28.3125 300H284.688C294.801 300 303 291.713 303 281.489V238.298C303 228.075 294.801 219.787 284.688 219.787Z" fill="#FCC878"/>
<path d="M1086.25 136.983C1095.56 124.352 1108.08 118.036 1123.81 118.036C1138.66 118.036 1150.4 122.209 1159.04 130.554C1169.24 140.253 1174.33 154.914 1174.33 174.537V243.895C1174.33 246.376 1173.12 247.617 1170.68 247.617H1146.08C1143.64 247.617 1142.42 246.376 1142.42 243.895V178.597C1142.42 158.072 1133.45 147.809 1115.5 147.809C1097.55 147.809 1088.58 158.297 1088.58 179.274V243.895C1088.58 246.376 1087.25 247.617 1084.59 247.617H1060.32C1057.89 247.617 1056.67 246.376 1056.67 243.895V124.464C1056.67 121.758 1057.89 120.404 1060.32 120.404H1061.99C1075.28 120.404 1083.37 125.93 1086.25 136.983Z" fill="#1E2A3A"/>
<path d="M966.33 251C948.159 251 933.313 245.699 921.79 235.098C908.716 222.693 902.179 205.664 902.179 184.01C902.179 165.29 907.165 149.952 917.136 137.998C928.881 124.464 945.168 117.698 965.998 117.698C983.947 117.698 998.683 122.885 1010.21 133.261C1023.28 145.441 1029.82 162.357 1029.82 184.01C1029.82 202.731 1024.83 218.069 1014.86 230.023C1003.34 244.008 987.16 251 966.33 251ZM965.998 220.212C974.418 220.212 981.288 217.844 986.606 213.107C993.697 207.017 997.243 197.544 997.243 184.687C997.243 173.409 994.473 164.5 988.933 157.959C983.393 151.418 975.748 148.147 965.998 148.147C956.248 148.147 948.603 151.418 943.063 157.959C937.523 164.275 934.753 173.071 934.753 184.349C934.753 195.626 937.523 204.423 943.063 210.739C948.603 217.054 956.248 220.212 965.998 220.212Z" fill="#1E2A3A"/>
<path d="M843.595 139.012C847.362 132.02 851.794 127.171 856.89 124.464C861.987 121.758 869.3 120.404 878.828 120.404H882.485C884.7 120.404 885.808 121.758 885.808 124.464V147.471C885.808 150.177 884.7 151.531 882.485 151.531H873.842C862.984 151.531 855.45 154.237 851.24 159.651C846.808 164.838 844.592 174.312 844.592 188.07V243.895C844.592 246.376 843.484 247.616 841.268 247.616H816.339C814.344 247.616 813.347 246.376 813.347 243.895V124.464C813.347 121.758 814.344 120.404 816.339 120.404H818.001C832.404 120.404 840.936 126.607 843.595 139.012Z" fill="#1E2A3A"/>
<path d="M729.294 149.839H707.356C704.918 149.839 703.7 148.486 703.7 145.779V124.464C703.7 121.758 704.918 120.404 707.356 120.404H729.294V79.4665C729.294 76.9854 730.402 75.7449 732.618 75.7449H734.28C752.007 75.7449 760.871 85.2181 760.871 104.165V120.404H787.795C789.789 120.404 790.786 121.758 790.786 124.464V145.779C790.786 148.486 789.789 149.839 787.795 149.839H760.871V243.895C760.871 246.376 759.763 247.617 757.547 247.617H732.618C730.402 247.617 729.294 246.376 729.294 243.895V149.839Z" fill="#1E2A3A"/>
<path d="M652.085 231.715C642.778 244.346 629.815 250.661 613.196 250.661C596.355 250.661 582.837 244.91 572.644 233.407C561.564 221.001 556.024 204.423 556.024 183.672C556.024 165.628 560.567 150.628 569.652 138.674C580.511 124.239 595.247 117.021 613.86 117.021C631.366 117.021 644.994 123.111 654.745 135.291C657.847 125.366 665.713 120.404 678.344 120.404H680.006C682.444 120.404 683.663 121.758 683.663 124.464V243.895C683.663 246.376 682.444 247.616 680.006 247.616H655.409C653.193 247.616 652.085 246.376 652.085 243.895V231.715ZM620.176 220.212C630.148 220.212 637.903 217.054 643.443 210.738C649.205 204.197 652.085 195.175 652.085 183.672C652.085 172.394 649.316 163.711 643.776 157.621C638.457 151.305 630.702 148.147 620.508 148.147C610.758 148.147 603.002 151.418 597.241 157.959C591.479 164.274 588.599 172.846 588.599 183.672C588.599 194.724 591.479 203.634 597.241 210.4C603.002 216.941 610.647 220.212 620.176 220.212Z" fill="#1E2A3A"/>
<path d="M435.574 151.869H473.135C494.629 151.869 505.376 141.268 505.376 120.066C505.376 110.818 502.496 103.601 496.734 98.4129C491.194 93.2251 483.439 90.6313 473.467 90.6313H435.574V151.869ZM435.574 182.319V243.895C435.574 246.376 434.356 247.617 431.918 247.617H406.656C404.219 247.617 403 246.376 403 243.895V63.5648C403 60.8582 404.219 59.5049 406.656 59.5049H470.808C491.638 59.5049 507.814 64.4671 519.337 74.3914C531.746 84.9924 537.951 100.217 537.951 120.066C537.951 137.434 532.965 151.643 522.993 162.696C511.47 175.778 495.405 182.319 474.796 182.319H435.574Z" fill="#1E2A3A"/>
<path d="M1535.18 250.157C1517.67 250.157 1503.38 244.969 1492.3 234.594C1479.67 222.639 1473.35 206.174 1473.35 185.197C1473.35 166.928 1478.23 151.928 1487.98 140.199C1499.5 126.441 1515.12 119.561 1534.84 119.561C1552.35 119.561 1566.64 124.862 1577.72 135.463C1590.57 147.417 1597 163.883 1597 184.859C1597 203.129 1592.01 218.128 1582.04 229.857C1570.74 243.39 1555.12 250.157 1535.18 250.157ZM1534.84 226.135C1544.81 226.135 1553.01 223.203 1559.44 217.339C1567.42 209.895 1571.41 199.182 1571.41 185.197C1571.41 173.243 1568.3 163.431 1562.1 155.763C1555.23 147.643 1546.14 143.583 1534.84 143.583C1524.87 143.583 1516.67 146.74 1510.25 153.056C1502.71 160.725 1498.94 171.439 1498.94 185.197C1498.94 197.828 1502.16 207.865 1508.58 215.309C1515.01 222.526 1523.76 226.135 1534.84 226.135Z" fill="#E8791A"/>
<path d="M1412.23 140.538C1416 133.997 1420.54 129.373 1425.86 126.666C1431.4 123.96 1438.82 122.606 1448.13 122.606H1451.79C1453.56 122.606 1454.45 123.508 1454.45 125.313V143.921C1454.45 145.951 1453.56 146.966 1451.79 146.966H1443.81C1432.73 146.966 1424.75 149.898 1419.88 155.763C1415.22 161.401 1412.9 171.1 1412.9 184.859V244.067C1412.9 246.097 1412.12 247.112 1410.57 247.112H1390.96C1389.19 247.112 1388.3 246.097 1388.3 244.067V125.313C1388.3 123.508 1389.19 122.606 1390.96 122.606H1392.62C1404.37 122.606 1410.9 128.583 1412.23 140.538Z" fill="#E8791A"/>
<path d="M1254.66 154.747H1296.54C1321.58 154.747 1334.1 142.455 1334.1 117.869C1334.1 107.72 1331.11 99.5996 1325.13 93.5097C1318.48 86.5175 1309.28 83.0214 1297.54 83.0214H1254.66V154.747ZM1254.66 178.431V244.067C1254.66 246.097 1253.77 247.112 1252 247.112H1232.06C1230.28 247.112 1229.4 246.097 1229.4 244.067V62.045C1229.4 60.015 1230.28 59 1232.06 59H1295.54C1314.6 59 1329.67 63.7366 1340.75 73.2099C1353.38 83.5853 1359.69 98.4719 1359.69 117.869C1359.69 135.012 1354.82 148.996 1345.07 159.822C1333.99 172.228 1318.26 178.431 1297.87 178.431H1254.66Z" fill="#E8791A"/>
</svg>
